<?xml version="1.0" encoding="utf-8"?>
<!-- Generator: Adobe Illustrator 16.2.0, SVG Export Plug-In . SVG Version: 6.00 Build 0)  -->
<!DOCTYPE svg PUBLIC "-//W3C//DTD SVG 1.1//EN" "http://www.w3.org/Graphics/SVG/1.1/DTD/svg11.dtd">
<svg version="1.1" id="Layer_1" xmlns="http://www.w3.org/2000/svg" xmlns:xlink="http://www.w3.org/1999/xlink" x="0px" y="0px"
	 width="500px" height="500px" viewBox="0 0 500 500" enable-background="new 0 0 500 500" xml:space="preserve">
<g>
	<path fill-rule="evenodd" clip-rule="evenodd" fill="#FFFFFF" d="M208.538,12.781c0,0,48.479-24.258,90.902,0l145.451,81.863
		c0,0,35.604,33.354,36.357,75.798c0.759,42.449,0,160.696,0,160.696s0.759,50.787-42.418,75.803l-139.39,81.864
		c0,0-47.725,20.468-84.841,0L63.087,400.877c0,0-30.297-14.403-30.297-66.702V167.412c0,0,4.543-53.817,36.357-72.768
		L208.538,12.781z"/>
	
		<path fill-rule="evenodd" clip-rule="evenodd" fill="none" stroke="#1B2D4F" stroke-width="30" stroke-linecap="round" stroke-linejoin="round" stroke-miterlimit="10" d="
		M34.682,342.217c13.302-2.204,28.521-11.573,44.115-34.909c45.933-68.71-9.186-173.414,95.149-173.414
		c31.166,0-62.339,211.042,26.25,209.408c18.861-0.348-6.566-107.977,22.966-107.977c33.775,0,26.245,78.528,26.245,78.528
		s4.363-78.528,26.25-78.528c34.449,0,2.023,107.977,26.244,107.977c25.428,0,37.733-31.082,39.372-75.255
		c1.639-44.173-26.25-86.712-22.967-107.977c3.283-21.27,110.733-51.534,120.577,10.635c9.839,62.165-63.982,78.528-64.799,58.075
		c-0.142-3.467,5.534-38.371,49.211,68.715c17.433,42.729,37.111,52.916,53.632,51.003 M149.341,272.954h-45.934"/>
</g>
</svg>
